<svg xmlns="http://www.w3.org/2000/svg" width="160" height="40" fill="none"><path fill="#6C6C7F" d="M66.647 24.389h6.996V22.28h-4.51v-7.937h-2.486v10.045Zm11.14-1.404c-.997 0-1.517-.871-1.517-2.178s.52-2.191 1.517-2.191c.998 0 1.532.885 1.532 2.191 0 1.307-.534 2.178-1.532 2.178m.014 1.63c2.319 0 3.836-1.644 3.836-3.808S80.12 17 77.802 17c-2.305 0-3.85 1.644-3.85 3.807s1.546 3.807 3.85 3.807Zm7.849 2.264c1.067 0 2.008-.24 2.64-.801.576-.52.956-1.307.956-2.389V17.2h-2.192v.773h-.028c-.421-.604-1.068-.984-2.023-.984-1.784 0-3.02 1.49-3.02 3.597 0 2.205 1.503 3.414 3.118 3.414.871 0 1.42-.352 1.84-.83h.057v.717c0 .871-.408 1.377-1.377 1.377-.759 0-1.138-.323-1.264-.702h-2.22c.225 1.503 1.531 2.318 3.512 2.318Zm-.015-4.58c-.857 0-1.419-.703-1.419-1.784 0-1.096.562-1.799 1.42-1.799.954 0 1.46.815 1.46 1.784 0 1.012-.463 1.799-1.46 1.799Zm8.117.686c-.997 0-1.517-.871-1.517-2.178s.52-2.191 1.517-2.191c.998 0 1.532.885 1.532 2.191 0 1.307-.534 2.178-1.532 2.178m.014 1.63c2.318 0 3.836-1.644 3.836-3.808S96.084 17 93.766 17c-2.304 0-3.849 1.644-3.849 3.807s1.545 3.807 3.85 3.807Zm4.504-.226h2.289v-7.193h-2.29zm0-8.19h2.289v-1.855h-2.29v1.854Zm3.284 10.567h2.29v-3.119h.028c.449.605 1.11.97 2.037.97 1.882 0 3.133-1.49 3.133-3.822 0-2.163-1.166-3.807-3.077-3.807-.983 0-1.686.436-2.178 1.082h-.042v-.871h-2.191zm3.765-3.92c-.984 0-1.546-.8-1.546-1.966s.506-2.051 1.504-2.051c.983 0 1.447.814 1.447 2.05 0 1.223-.534 1.968-1.405 1.968Zm7.451 1.771c1.882 0 3.273-.815 3.273-2.389 0-1.84-1.489-2.163-2.754-2.374-.913-.168-1.728-.239-1.728-.744 0-.45.436-.66.998-.66.632 0 1.068.196 1.152.842h2.107c-.112-1.419-1.208-2.304-3.245-2.304-1.7 0-3.105.787-3.105 2.304 0 1.686 1.335 2.023 2.585 2.234.955.169 1.826.239 1.826.885 0 .464-.435.717-1.123.717-.759 0-1.237-.352-1.321-1.068h-2.164c.071 1.587 1.391 2.557 3.499 2.557m6.384-.018c.997 0 1.629-.393 2.149-1.096h.042v.885h2.192v-7.193h-2.29v4.018c0 .857-.478 1.447-1.264 1.447-.731 0-1.082-.435-1.082-1.222v-4.243h-2.276v4.72c0 1.602.871 2.684 2.529 2.684"/><path fill="#6C6C7F" fill-rule="evenodd" d="M48.397 31.415c6.466 0 11.707-5.242 11.707-11.708S54.863 8 48.397 8 36.69 13.242 36.69 19.707s5.241 11.708 11.707 11.708m3.652-17.961c.178-.632-.435-1.005-.995-.606l-7.813 5.565c-.606.433-.511 1.294.144 1.294h2.057v-.016h4.01l-3.267 1.153-1.44 5.117c-.178.631.434 1.005.994.606l7.813-5.566c.607-.432.511-1.294-.143-1.294h-3.12z" clip-rule="evenodd"/></svg>